<?xml version="1.0" standalone="no"?>
<!DOCTYPE svg PUBLIC "-//W3C//DTD SVG 20010904//EN"
 "http://www.w3.org/TR/2001/REC-SVG-20010904/DTD/svg10.dtd">
<svg version="1.0" xmlns="http://www.w3.org/2000/svg"
 width="460.000000pt" height="460.000000pt" viewBox="0 0 460.000000 460.000000"
 preserveAspectRatio="xMidYMid meet">
<metadata>
Created by potrace 1.14, written by Peter Selinger 2001-2017
</metadata>
<g transform="translate(0.000000,460.000000) scale(0.100000,-0.100000)"
fill="#000000" stroke="none">
<path d="M0 2300 l0 -2300 2300 0 2300 0 0 2300 0 2300 -2300 0 -2300 0 0
-2300z m1682 647 c24 -30 23 -88 -2 -120 -55 -70 -170 -25 -170 67 0 31 43 84
73 88 35 6 80 -10 99 -35z m-313 -267 c87 -44 101 -87 101 -302 l0 -158 -85 0
-85 0 0 151 0 151 -29 29 c-40 39 -74 38 -117 -5 l-34 -34 0 -146 0 -146 -80
0 -80 0 0 235 0 235 80 0 c73 0 80 -2 80 -19 0 -18 4 -18 58 10 49 27 64 30
106 24 27 -3 65 -14 85 -25z m1236 15 c33 -9 61 -18 64 -20 2 -3 -6 -28 -19
-56 -22 -46 -26 -50 -49 -43 -15 5 -48 8 -76 9 -43 0 -50 -3 -50 -19 0 -22 11
-29 86 -56 98 -36 140 -102 118 -185 -24 -86 -90 -120 -226 -113 -81 4 -111
13 -162 47 -11 7 -8 19 18 64 l32 56 47 -25 c60 -32 117 -30 117 4 0 18 -14
30 -75 60 -82 40 -120 83 -120 134 0 117 137 184 295 143z m-915 -240 l0 -235
-85 0 -85 0 0 235 0 235 85 0 85 0 0 -235z m220 101 c0 -73 5 -148 11 -165 19
-55 101 -70 144 -26 24 23 25 28 25 175 l0 150 85 0 85 0 0 -152 c0 -84 -5
-171 -11 -193 -14 -51 -73 -110 -124 -124 -59 -16 -205 -14 -256 4 -102 36
-118 78 -119 298 l0 167 80 0 80 0 0 -134z m687 -541 c18 -8 33 -19 33 -25 0
-6 -11 -33 -25 -61 -22 -43 -28 -48 -45 -39 -10 5 -37 10 -60 10 -34 0 -48 -6
-76 -34 -29 -29 -34 -41 -34 -81 0 -80 70 -130 153 -108 l38 11 27 -55 c23
-46 25 -55 12 -63 -50 -32 -184 -40 -244 -15 -20 9 -55 32 -77 52 -70 63 -98
144 -79 229 28 124 153 212 285 198 32 -3 74 -12 92 -19z m453 -13 c200 -100
177 -377 -39 -450 -48 -17 -169 -15 -222 3 -59 20 -114 67 -141 118 -31 58
-31 165 -1 223 69 131 255 180 403 106z m320 -267 c50 -26 73 -91 49 -138 -19
-38 -51 -57 -97 -57 -87 0 -134 96 -81 164 36 46 80 56 129 31z"/>
<path d="M2873 1893 c-39 -8 -73 -59 -73 -110 0 -36 6 -50 29 -74 24 -24 38
-29 76 -29 65 0 105 39 105 102 0 24 -7 54 -16 67 -15 21 -73 53 -91 50 -4 -1
-18 -4 -30 -6z"/>
</g>
</svg>
